<svg width="30" height="26" viewBox="0 0 30 26" fill="none" xmlns="http://www.w3.org/2000/svg">
<path d="M14.2788 23.2933L2.01917 11.3462L2.30763 4.49527L4.56724 1.58661H11.2499L13.8701 5.33661H15.8172L18.149 2.62027L23.9182 0.817383L28.4855 4.75969V10.6491L16.1057 23.2933H14.2788Z" fill="#DD775A"/>
<rect y="3.31726" width="3.22115" height="9.13461" fill="#FFF5DF"/>
<rect x="3.22107" y="12.452" width="3.22115" height="3.17308" fill="#FFF5DF"/>
<rect x="23.5577" y="12.452" width="3.22115" height="3.17308" fill="#FFF5DF"/>
<rect x="6.44226" y="15.6249" width="3.22115" height="3.17308" fill="#FFF5DF"/>
<rect x="9.66345" y="18.798" width="3.22115" height="3.17308" fill="#FFF5DF"/>
<rect x="12.8846" y="21.9712" width="4.23077" height="3.17308" fill="#FFF5DF"/>
<rect x="17.1154" y="18.798" width="3.22115" height="3.17308" fill="#FFF5DF"/>
<rect x="20.3365" y="15.6249" width="3.22115" height="3.17308" fill="#FFF5DF"/>
<rect x="26.7788" y="3.31726" width="3.22115" height="9.13461" fill="#FFF5DF"/>
<rect x="3.22107" width="9.27885" height="3.31731" fill="#FFF5DF"/>
<rect x="12.4519" y="3.31726" width="5.04808" height="3.31731" fill="#FFF5DF"/>
<rect x="17.5" width="9.27885" height="3.31731" fill="#FFF5DF"/>
</svg>
