<svg width="30" height="30" viewBox="0 0 30 30" fill="none" xmlns="http://www.w3.org/2000/svg">
<path d="M25.3125 5.625H21.0938V4.21875C21.0938 3.34851 20.748 2.51391 20.1327 1.89856C19.5173 1.2832 18.6827 0.9375 17.8125 0.9375H12.1875C11.3173 0.9375 10.4827 1.2832 9.86731 1.89856C9.25195 2.51391 8.90625 3.34851 8.90625 4.21875V5.625H4.6875C4.31454 5.625 3.95685 5.77316 3.69313 6.03688C3.42941 6.3006 3.28125 6.65829 3.28125 7.03125C3.28125 7.40421 3.42941 7.7619 3.69313 8.02562C3.95685 8.28934 4.31454 8.4375 4.6875 8.4375H5.15625V24.375C5.15625 24.9966 5.40318 25.5927 5.84272 26.0323C6.28226 26.4718 6.8784 26.7188 7.5 26.7188H22.5C23.1216 26.7188 23.7177 26.4718 24.1573 26.0323C24.5968 25.5927 24.8438 24.9966 24.8438 24.375V8.4375H25.3125C25.6855 8.4375 26.0431 8.28934 26.3069 8.02562C26.5706 7.7619 26.7188 7.40421 26.7188 7.03125C26.7188 6.65829 26.5706 6.3006 26.3069 6.03688C26.0431 5.77316 25.6855 5.625 25.3125 5.625ZM11.7188 4.21875C11.7188 4.09443 11.7681 3.9752 11.856 3.88729C11.944 3.79939 12.0632 3.75 12.1875 3.75H17.8125C17.9368 3.75 18.056 3.79939 18.144 3.88729C18.2319 3.9752 18.2812 4.09443 18.2812 4.21875V5.625H11.7188V4.21875ZM22.0312 23.9062H7.96875V8.4375H22.0312V23.9062ZM13.5938 12.1875V19.6875C13.5937 20.0605 13.4456 20.4181 13.1819 20.6819C12.9181 20.9456 12.5605 21.0938 12.1875 21.0938C11.8145 21.0938 11.4569 20.9456 11.1931 20.6819C10.9294 20.4181 10.7813 20.0605 10.7812 19.6875V12.1875C10.7812 11.8145 10.9294 11.4569 11.1931 11.1931C11.4569 10.9294 11.8145 10.7813 12.1875 10.7812C12.5605 10.7813 12.9181 10.9294 13.1819 11.1931C13.4456 11.4569 13.5938 11.8145 13.5938 12.1875ZM19.2188 12.1875V19.6875C19.2188 20.0605 19.0706 20.4181 18.8069 20.6819C18.5431 20.9456 18.1855 21.0938 17.8125 21.0938C17.4395 21.0938 17.0819 20.9456 16.8181 20.6819C16.5544 20.4181 16.4062 20.0605 16.4062 19.6875V12.1875C16.4062 11.8145 16.5544 11.4569 16.8181 11.1931C17.0819 10.9294 17.4395 10.7813 17.8125 10.7812C18.1855 10.7813 18.5431 10.9294 18.8069 11.1931C19.0706 11.4569 19.2188 11.8145 19.2188 12.1875Z" fill="#384B49"/>
</svg>
