<svg width="34" height="34" viewBox="0 0 34 34" fill="none" xmlns="http://www.w3.org/2000/svg">
<path d="M29.75 5.84375H4.25C3.82731 5.84375 3.42193 6.01166 3.12305 6.31055C2.82416 6.60943 2.65625 7.01481 2.65625 7.4375V25.5C2.65625 26.2045 2.9361 26.8801 3.43425 27.3783C3.93239 27.8764 4.60802 28.1562 5.3125 28.1562H28.6875C29.392 28.1562 30.0676 27.8764 30.5658 27.3783C31.0639 26.8801 31.3438 26.2045 31.3438 25.5V7.4375C31.3438 7.01481 31.1758 6.60943 30.877 6.31055C30.5781 6.01166 30.1727 5.84375 29.75 5.84375ZM17 16.9628L8.34727 9.03125H25.6527L17 16.9628ZM12.3237 17L5.84375 22.9394V11.0606L12.3237 17ZM14.6824 19.1622L15.9229 20.3004C16.2168 20.5699 16.6012 20.7195 17 20.7195C17.3988 20.7195 17.7832 20.5699 18.0771 20.3004L19.3176 19.1622L25.6527 24.9688H8.34727L14.6824 19.1622ZM21.6763 17L28.1562 11.0606V22.9394L21.6763 17Z" fill="#A34D41"/>
</svg>
