<svg width="24" height="24" viewBox="0 0 24 24" fill="none" xmlns="http://www.w3.org/2000/svg">
<path d="M19.5 9H4.5C4.00272 9 3.52581 9.19754 3.17417 9.54918C2.82254 9.90081 2.625 10.3777 2.625 10.875V18.75C2.625 19.2473 2.82254 19.7242 3.17417 20.0758C3.52581 20.4275 4.00272 20.625 4.5 20.625H19.5C19.9973 20.625 20.4742 20.4275 20.8258 20.0758C21.1775 19.7242 21.375 19.2473 21.375 18.75V10.875C21.375 10.3777 21.1775 9.90081 20.8258 9.54918C20.4742 9.19754 19.9973 9 19.5 9ZM19.125 18.375H4.875V11.25H19.125V18.375ZM4.125 6.375C4.125 6.07663 4.24353 5.79048 4.4545 5.5795C4.66548 5.36853 4.95163 5.25 5.25 5.25H18.75C19.0484 5.25 19.3345 5.36853 19.5455 5.5795C19.7565 5.79048 19.875 6.07663 19.875 6.375C19.875 6.67337 19.7565 6.95952 19.5455 7.1705C19.3345 7.38147 19.0484 7.5 18.75 7.5H5.25C4.95163 7.5 4.66548 7.38147 4.4545 7.1705C4.24353 6.95952 4.125 6.67337 4.125 6.375ZM5.625 2.625C5.625 2.32663 5.74353 2.04048 5.9545 1.8295C6.16548 1.61853 6.45163 1.5 6.75 1.5H17.25C17.5484 1.5 17.8345 1.61853 18.0455 1.8295C18.2565 2.04048 18.375 2.32663 18.375 2.625C18.375 2.92337 18.2565 3.20952 18.0455 3.4205C17.8345 3.63147 17.5484 3.75 17.25 3.75H6.75C6.45163 3.75 6.16548 3.63147 5.9545 3.4205C5.74353 3.20952 5.625 2.92337 5.625 2.625Z" fill="white"/>
</svg>
