<svg width="35" height="34" viewBox="0 0 35 34" fill="none" xmlns="http://www.w3.org/2000/svg">
<path d="M14.8438 11.1562C14.8438 10.736 14.9684 10.3251 15.2019 9.97566C15.4354 9.62621 15.7673 9.35384 16.1556 9.19301C16.5438 9.03217 16.9711 8.99009 17.3833 9.07208C17.7955 9.15407 18.1742 9.35646 18.4714 9.65365C18.7685 9.95084 18.9709 10.3295 19.0529 10.7417C19.1349 11.1539 19.0928 11.5812 18.932 11.9695C18.7712 12.3577 18.4988 12.6896 18.1493 12.9231C17.7999 13.1566 17.389 13.2812 16.9688 13.2812C16.4052 13.2812 15.8647 13.0574 15.4662 12.6589C15.0676 12.2603 14.8438 11.7198 14.8438 11.1562ZM31.8438 17C31.8438 19.8369 31.0025 22.6101 29.4264 24.969C27.8503 27.3278 25.6101 29.1663 22.9891 30.2519C20.3681 31.3375 17.4841 31.6216 14.7017 31.0681C11.9193 30.5147 9.36345 29.1486 7.35744 27.1426C5.35143 25.1366 3.98532 22.5807 3.43187 19.7983C2.87841 17.0159 3.16246 14.1319 4.24811 11.5109C5.33375 8.88991 7.17223 6.64972 9.53105 5.07361C11.8899 3.4975 14.6631 2.65625 17.5 2.65625C21.3029 2.66047 24.9488 4.17304 27.6379 6.8621C30.327 9.55116 31.8395 13.1971 31.8438 17ZM28.6563 17C28.6563 14.7935 28.002 12.6366 26.7761 10.8019C25.5502 8.96728 23.8079 7.53736 21.7693 6.69297C19.7308 5.84858 17.4876 5.62765 15.3235 6.05811C13.1594 6.48858 11.1716 7.55111 9.61135 9.11134C8.05112 10.6716 6.98859 12.6594 6.55812 14.8235C6.12765 16.9876 6.34859 19.2308 7.19298 21.2693C8.03737 23.3078 9.46729 25.0502 11.3019 26.2761C13.1366 27.5019 15.2935 28.1562 17.5 28.1562C20.4579 28.1531 23.2937 26.9767 25.3852 24.8852C27.4767 22.7936 28.6531 19.9579 28.6563 17ZM19.0938 21.8716V17.5312C19.0938 16.8268 18.8139 16.1511 18.3158 15.653C17.8176 15.1549 17.142 14.875 16.4375 14.875C16.0611 14.8744 15.6967 15.0071 15.4088 15.2495C15.1208 15.4919 14.928 15.8284 14.8643 16.1993C14.8007 16.5703 14.8704 16.9518 15.0611 17.2763C15.2518 17.6008 15.5512 17.8473 15.9063 17.9722V22.3125C15.9063 23.017 16.1861 23.6926 16.6843 24.1908C17.1824 24.6889 17.858 24.9688 18.5625 24.9688C18.9389 24.9693 19.3033 24.8366 19.5913 24.5943C19.8792 24.3519 20.0721 24.0154 20.1357 23.6444C20.1993 23.2735 20.1296 22.892 19.9389 22.5675C19.7482 22.243 19.4488 21.9965 19.0938 21.8716Z" fill="white"/>
</svg>
