<svg width="24" height="24" viewBox="0 0 24 24" fill="none" xmlns="http://www.w3.org/2000/svg">
<path d="M14.0312 7.125C14.0312 7.125 14.1803 11.0709 15.7891 12.6797C17.3979 14.2884 21.3438 14.4375 21.3438 14.4375C21.3438 14.4375 17.3979 14.5865 15.7891 16.1953C14.1804 17.8042 14.0312 21.75 14.0312 21.75C14.0312 21.75 13.8821 17.8041 12.2734 16.1953C10.6646 14.5865 6.71875 14.4375 6.71875 14.4375C6.71875 14.4375 10.6646 14.2884 12.2734 12.6797C13.8818 11.0713 14.0312 7.12689 14.0312 7.125ZM5.90625 7.125C5.90633 7.12702 5.97289 8.87915 6.6875 9.59375C7.40256 10.3087 9.15625 10.375 9.15625 10.375C9.15625 10.375 7.40252 10.4412 6.6875 11.1562C5.9725 11.8713 5.90625 13.625 5.90625 13.625C5.90625 13.625 5.83995 11.8713 5.125 11.1562C4.41054 10.4418 2.65898 10.3751 2.65625 10.375C2.65625 10.375 4.40997 10.3087 5.125 9.59375C5.84002 8.87874 5.90625 7.125 5.90625 7.125ZM10.7812 2.25C10.7814 2.25386 10.8483 4.00453 11.5625 4.71875C12.2776 5.43365 14.0312 5.5 14.0312 5.5C14.0312 5.5 12.2775 5.56627 11.5625 6.28125C10.8475 6.99626 10.7812 8.75 10.7812 8.75C10.7812 8.75 10.7149 6.99634 10 6.28125C9.28847 5.56973 7.54823 5.50066 7.53125 5.5C7.54778 5.49936 9.28838 5.43036 10 4.71875C10.715 4.00371 10.7812 2.25 10.7812 2.25Z" fill="#BD8919"/>
</svg>
